# xmcd
#
# Track frame offsets: 
#        150
#        26710
#        52789
#        74173
#        95370
#        117730
#        144339
#        164026
#        188700
#        209403
#        231359
#        253190
#        281584
#
# Disc length: 4503 seconds
#
# Revision: 7
# Processed by: cddbd v1.5.2PL0 Copyright (c) Steve Scherf et al.
# Submitted via: ExactAudioCopy v0.95b4
#
DISCID=cb11950d
DTITLE=Carlos Santana - Supernatural
DYEAR=1999
DGENRE=Rock
TTITLE0=(Da Le) Yaleo
TTITLE1=Love Of My Life (Featuring Dave Matthews)
TTITLE2=Put Your Lights On (Featuring Everlast)
TTITLE3=Africa Bamba
TTITLE4=Smooth (Featuring Rob Thomas)
TTITLE5=Do You Like The Way (Featuring Lauryn Hill and Cee-Lo)
TTITLE6=Maria Maria
TTITLE7=Migra
TTITLE8=Corazon Espinado (Featuring Mana)
TTITLE9=Wishing It Was (Featuring Eagle-Eye Cherry)
TTITLE10=El Farol
TTITLE11=Primavera
TTITLE12=The Calling (Featuring Eric Clapton)
EXTD=YEAR: 1999 ID3G:   0
EXTT0=
EXTT1=
EXTT2=
EXTT3=
EXTT4=
EXTT5=
EXTT6=
EXTT7=
EXTT8=
EXTT9=
EXTT10=
EXTT11=
EXTT12=
PLAYORDER=
